<svg width="322" height="79" viewBox="0 0 322 79" fill="none" xmlns="http://www.w3.org/2000/svg">
<g clip-path="url(#clip0_1515_3190)">
<g clip-path="url(#clip1_1515_3190)">
<path d="M83.3854 11.0002H67.1353L70.3047 15.7457L83.6481 35.7257L91.7732 23.5556L83.3854 11.0002Z" fill="#E31F26"/>
<path d="M96.2558 54.6026L104.381 66.7727L112.506 54.6026L118.845 45.1642L110.527 33.2917L104.381 42.4325L99.9155 35.7258L91.7729 47.8959L96.2558 54.6026Z" fill="#E31F26"/>
<path d="M79.1828 42.4324L58.1872 11.0002H41.937L45.089 15.7282L71.0577 54.6025L79.1828 66.7726L87.3079 54.6025L91.7732 47.8958L83.6481 35.7257L79.1828 42.4324Z" fill="#33BBED"/>
<path d="M151.853 11.0002C147.37 11.0002 145.234 13.2241 145.234 18.0396V44.0084C145.234 53.0615 141.609 48.4211 141.609 48.4211L121.104 17.742C121.104 17.742 117.286 11.0002 110.79 11.0002H105.992C99.4427 11.0002 95.7304 17.6544 95.7304 17.6544L91.7729 23.5731L99.898 35.7432L105.414 27.478C105.414 27.478 106.325 25.7445 108.373 25.7445C110.422 25.7445 111.42 27.5831 111.42 27.5831L133.502 60.6438C133.502 60.6438 136.513 67.0002 143.29 67.0002H150.715C154.777 67.0002 158.262 64.4436 158.262 57.5443V18.0396C158.262 13.3292 156.336 11.0002 151.853 11.0002Z" fill="#33BBED"/>
<path d="M91.773 47.8959L99.9156 35.7258L91.773 23.5557L83.6479 35.7258" fill="#823336"/>
<path d="M180.262 15.5354H181.75L185.673 26.4097L189.507 15.5354H191.451L195.251 26.4622L199.209 15.5354H200.697L196.249 27.9857H194.306L190.506 17.0589L186.706 27.9857H184.762L180.314 15.5354H180.262Z" fill="#E31F26"/>
<path d="M202.221 15.5354H203.552V17.1464H202.221V15.5354ZM202.221 19.2127H203.552V27.9857H202.221V19.2127Z" fill="#E31F26"/>
<path d="M205.95 24.9563H207.193V25.394C207.193 26.4797 207.701 26.9175 209.067 26.9175H211.904C213.9 26.9175 214.53 26.8299 214.53 25.5341V25.4641C214.53 24.6235 214.303 24.1508 212.709 24.1508H208.612C206.738 24.1508 206.038 23.4853 206.038 21.8218V21.314C206.038 19.8956 206.773 19.0901 210.048 19.0901H212.096C215.108 19.0901 215.511 20.0532 215.511 21.2965V21.7693H214.268V21.6817C214.268 20.3334 213.462 20.2983 212.009 20.2983H209.68C207.771 20.2983 207.351 20.5085 207.351 21.5066V21.8393C207.351 22.5573 207.561 22.9775 208.962 22.9775H212.482C214.478 22.9775 215.844 23.2052 215.844 25.5691V25.6042C215.844 28.0557 213.795 28.1432 212.184 28.1432H209.732C207.771 28.1432 205.933 28.1432 205.933 25.5166V24.9913L205.95 24.9563Z" fill="#E31F26"/>
<path d="M217.718 22.6273C217.718 19.4403 219.697 19.0901 221.588 19.0901H223.724C226.106 19.0901 227.822 19.7555 227.822 22.89V23.8706H219.049V24.4134C219.049 26.4097 219.924 26.9175 222.236 26.9175H224.057C225.738 26.9175 226.403 26.6723 226.491 25.3415H227.822V25.5166C227.822 27.5304 226.316 28.1257 223.847 28.1257H221.43C219.697 28.1257 217.718 27.758 217.718 24.536V22.6273ZM226.491 22.0669C226.491 21.1739 225.895 20.2808 223.724 20.2808H221.78C219.679 20.2808 219.171 20.6661 219.049 22.6448H226.491V22.0669Z" fill="#E31F26"/>
<path d="M230.046 15.5354H232.305L242.566 26.4622V15.5354H244.09V27.9857H241.831L231.569 17.0589V27.9857H230.046V15.5354Z" fill="#33BBED"/>
<path d="M206.125 51.0233C205.53 50.6205 204.707 50.3404 203.709 50.1652C202.711 49.9901 201.222 49.9026 199.296 49.9026H190.366C187.651 49.9026 185.848 49.5874 184.99 48.9395C184.149 48.3091 183.729 47.1358 183.729 45.4373C183.729 43.7387 184.167 42.6005 185.025 41.9876C185.9 41.3572 187.616 41.042 190.155 41.042H198.631C201.117 41.042 202.781 41.3397 203.534 41.9526C204.287 42.548 204.654 43.7387 204.654 45.4723V46.0151H207.894V45.1046C207.894 43.7913 207.754 42.6706 207.474 41.795C207.194 40.902 206.756 40.184 206.178 39.6237C205.46 38.9757 204.462 38.5205 203.219 38.2578C201.993 37.9951 199.804 37.8726 196.722 37.8726H191.083C187.003 37.8726 184.149 38.4504 182.608 39.5886C181.05 40.7268 180.262 42.7581 180.262 45.5774C180.262 48.3966 180.962 50.3228 182.328 51.4611C183.676 52.5993 186.058 53.1771 189.402 53.1771H199.891C202.063 53.1771 203.516 53.4923 204.199 54.1052C204.882 54.7181 205.215 55.8738 205.215 57.5374C205.215 59.5336 204.725 60.8995 203.726 61.5999C202.728 62.3178 200.539 62.6681 197.212 62.6681H190.716C187.949 62.6681 186.04 62.3354 185.042 61.6874C184.062 61.0395 183.571 59.8838 183.571 58.2378C183.571 58.0277 183.571 57.6424 183.606 57.1696C183.606 56.9595 183.624 56.7844 183.641 56.6443V56.5042H180.437V56.6093C180.437 56.6093 180.402 56.7844 180.402 56.942C180.367 57.7825 180.349 58.3429 180.349 58.6756C180.349 61.2497 181.085 63.1409 182.521 64.2616C183.957 65.3823 186.391 65.9426 189.735 65.9426H198.158C202.045 65.9426 204.777 65.3297 206.283 64.1215C207.789 62.9132 208.559 60.7594 208.559 57.7125C208.559 55.8213 208.367 54.3504 208.017 53.3697C207.649 52.3541 207.018 51.5661 206.143 51.0058L206.125 51.0233Z" fill="#455B68"/>
<path d="M242.32 39.8161C241.515 39.1157 240.447 38.6254 239.133 38.3277C237.838 38.03 235.841 37.8899 233.232 37.8899H224.932C222.323 37.8899 220.327 38.03 219.031 38.3277C217.717 38.6254 216.649 39.1157 215.844 39.8161C214.951 40.6041 214.303 41.6723 213.9 43.0381C213.515 44.3689 213.305 46.2076 213.305 48.4665V55.8736C213.305 57.9399 213.515 59.6385 213.9 60.9168C214.303 62.1951 214.968 63.2457 215.861 64.0337C216.667 64.7342 217.735 65.242 219.031 65.5222C220.309 65.8023 222.305 65.9599 224.949 65.9599H233.215C235.894 65.9599 237.89 65.8198 239.168 65.5222C240.447 65.2245 241.497 64.7342 242.303 64.0337C243.178 63.2808 243.826 62.2126 244.229 60.8993C244.632 59.586 244.842 57.8349 244.842 55.716V48.1513C244.842 46.05 244.632 44.2989 244.229 42.9856C243.826 41.6547 243.178 40.5866 242.303 39.8336L242.32 39.8161ZM234.703 62.5628H223.461C221.885 62.5628 220.642 62.4052 219.801 62.1075C218.961 61.8098 218.295 61.3195 217.823 60.6366C217.472 60.1463 217.227 59.5509 217.087 58.868C216.947 58.1851 216.877 57.0118 216.877 55.4008V48.2739C216.877 46.6629 216.947 45.4896 217.087 44.8067C217.227 44.1238 217.472 43.5284 217.823 43.0381C218.295 42.3552 218.961 41.8649 219.801 41.5672C220.659 41.2695 221.885 41.1119 223.461 41.1119H234.703C236.279 41.1119 237.522 41.2695 238.363 41.5672C239.203 41.8649 239.869 42.3552 240.342 43.0381C240.657 43.5109 240.902 44.0713 241.042 44.7192C241.182 45.3671 241.252 46.4177 241.252 47.8536V55.8211C241.252 57.222 241.182 58.2726 241.042 58.938C240.902 59.586 240.674 60.1638 240.342 60.6366C239.869 61.3195 239.203 61.8098 238.363 62.1075C237.505 62.4052 236.279 62.5628 234.703 62.5628Z" fill="#455B68"/>
<path d="M253.807 62.3883V38.2231H250.463V65.6453H273.122V62.3883H253.807Z" fill="#455B68"/>
</g>
</g>
<defs>
<clipPath id="clip0_1515_3190">
<rect width="322" height="78.1895" fill="white" transform="translate(0 0.137207)"/>
</clipPath>
<clipPath id="clip1_1515_3190">
<rect width="238.884" height="56" fill="white" transform="translate(41.937 11.0002)"/>
</clipPath>
</defs>
</svg>
