<svg width="322" height="79" viewBox="0 0 322 79" fill="none" xmlns="http://www.w3.org/2000/svg">
<g clip-path="url(#clip0_1515_3210)">
<g clip-path="url(#clip1_1515_3210)">
<path d="M83.4484 11.1897H67.1982L70.3677 15.9352L83.7111 35.9152L91.8361 23.745L83.4484 11.1897Z" fill="white"/>
<path d="M96.3187 54.792L104.444 66.9621L112.569 54.792L118.908 45.3536L110.59 33.4812L104.444 42.6219L99.9785 35.9152L91.8359 48.0853L96.3187 54.792Z" fill="white"/>
<path d="M79.2458 42.6218L58.2502 11.1897H42L45.152 15.9177L71.1207 54.7919L79.2458 66.9621L87.3709 54.7919L91.8361 48.0853L83.7111 35.9152L79.2458 42.6218Z" fill="white"/>
<path d="M151.916 11.1897C147.433 11.1897 145.297 13.4136 145.297 18.2291V44.1978C145.297 53.251 141.672 48.6106 141.672 48.6106L121.167 17.9314C121.167 17.9314 117.349 11.1897 110.853 11.1897H106.055C99.5057 11.1897 95.7934 17.8439 95.7934 17.8439L91.8359 23.7626L99.961 35.9327L105.477 27.6675C105.477 27.6675 106.388 25.9339 108.436 25.9339C110.485 25.9339 111.483 27.7726 111.483 27.7726L133.565 60.8332C133.565 60.8332 136.576 67.1897 143.353 67.1897H150.778C154.84 67.1897 158.325 64.6331 158.325 57.7338V18.2291C158.325 13.5187 156.399 11.1897 151.916 11.1897Z" fill="white"/>
<path d="M91.836 48.0853L99.9786 35.9152L91.836 23.7451L83.7109 35.9152" fill="white"/>
<path d="M180.325 15.7249H181.813L185.736 26.5991L189.57 15.7249H191.514L195.314 26.6517L199.272 15.7249H200.76L196.312 28.1751H194.368L190.569 17.2483L186.769 28.1751H184.825L180.377 15.7249H180.325Z" fill="white"/>
<path d="M202.283 15.7249H203.614V17.3359H202.283V15.7249ZM202.283 19.4022H203.614V28.1751H202.283V19.4022Z" fill="white"/>
<path d="M206.013 25.1457H207.256V25.5835C207.256 26.6692 207.764 27.1069 209.13 27.1069H211.967C213.963 27.1069 214.593 27.0194 214.593 25.7236V25.6535C214.593 24.813 214.366 24.3402 212.772 24.3402H208.675C206.801 24.3402 206.101 23.6748 206.101 22.0112V21.5034C206.101 20.085 206.836 19.2795 210.111 19.2795H212.159C215.171 19.2795 215.574 20.2426 215.574 21.4859V21.9587H214.331V21.8712C214.331 20.5228 213.525 20.4878 212.072 20.4878H209.743C207.834 20.4878 207.414 20.6979 207.414 21.6961V22.0288C207.414 22.7467 207.624 23.167 209.025 23.167H212.545C214.541 23.167 215.907 23.3946 215.907 25.7586V25.7936C215.907 28.2451 213.858 28.3327 212.247 28.3327H209.795C207.834 28.3327 205.996 28.3327 205.996 25.7061V25.1807L206.013 25.1457Z" fill="white"/>
<path d="M217.781 22.8168C217.781 19.6298 219.759 19.2795 221.651 19.2795H223.787C226.169 19.2795 227.885 19.945 227.885 23.0794V24.06H219.112V24.6029C219.112 26.5991 219.987 27.1069 222.299 27.1069H224.12C225.801 27.1069 226.466 26.8618 226.554 25.5309H227.885V25.7061C227.885 27.7198 226.379 28.3152 223.91 28.3152H221.493C219.76 28.3152 217.781 27.9475 217.781 24.7254V22.8168ZM226.554 22.2564C226.554 21.3633 225.958 20.4703 223.787 20.4703H221.843C219.742 20.4703 219.234 20.8555 219.112 22.8343H226.554V22.2564Z" fill="white"/>
<path d="M230.109 15.7249H232.368L242.629 26.6517V15.7249H244.153V28.1751H241.894L231.632 17.2483V28.1751H230.109V15.7249Z" fill="white"/>
<path d="M206.188 51.2127C205.593 50.81 204.77 50.5298 203.772 50.3547C202.774 50.1796 201.285 50.092 199.359 50.092H190.429C187.714 50.092 185.911 49.7768 185.053 49.1289C184.212 48.4985 183.792 47.3253 183.792 45.6267C183.792 43.9282 184.23 42.79 185.088 42.1771C185.963 41.5467 187.679 41.2315 190.218 41.2315H198.694C201.18 41.2315 202.844 41.5292 203.597 42.1421C204.35 42.7374 204.717 43.9282 204.717 45.6618V46.2046H207.957V45.294C207.957 43.9807 207.817 42.86 207.537 41.9845C207.257 41.0914 206.819 40.3735 206.241 39.8131C205.523 39.1652 204.525 38.7099 203.282 38.4473C202.056 38.1846 199.867 38.062 196.785 38.062H191.146C187.066 38.062 184.212 38.6399 182.671 39.7781C181.113 40.9163 180.325 42.9476 180.325 45.7668C180.325 48.5861 181.025 50.5123 182.391 51.6505C183.739 52.7887 186.121 53.3666 189.465 53.3666H199.954C202.126 53.3666 203.579 53.6818 204.262 54.2947C204.945 54.9075 205.278 56.0633 205.278 57.7268C205.278 59.7231 204.787 61.0889 203.789 61.7893C202.791 62.5073 200.602 62.8575 197.275 62.8575H190.779C188.012 62.8575 186.103 62.5248 185.105 61.8769C184.125 61.229 183.634 60.0733 183.634 58.4272C183.634 58.2171 183.634 57.8319 183.669 57.3591C183.669 57.1489 183.687 56.9738 183.704 56.8337V56.6937H180.5V56.7987C180.5 56.7987 180.465 56.9738 180.465 57.1314C180.43 57.972 180.412 58.5323 180.412 58.865C180.412 61.4391 181.148 63.3303 182.584 64.451C184.02 65.5717 186.454 66.1321 189.798 66.1321H198.221C202.108 66.1321 204.84 65.5192 206.346 64.3109C207.852 63.1027 208.622 60.9488 208.622 57.9019C208.622 56.0107 208.43 54.5398 208.08 53.5592C207.712 52.5436 207.081 51.7556 206.206 51.1952L206.188 51.2127Z" fill="white"/>
<path d="M242.383 40.0055C241.578 39.3051 240.51 38.8148 239.196 38.5171C237.901 38.2194 235.904 38.0793 233.295 38.0793H224.995C222.386 38.0793 220.39 38.2194 219.094 38.5171C217.78 38.8148 216.712 39.3051 215.907 40.0055C215.014 40.7935 214.366 41.8617 213.963 43.2276C213.578 44.5584 213.368 46.397 213.368 48.656V56.0631C213.368 58.1294 213.578 59.8279 213.963 61.1062C214.366 62.3845 215.031 63.4352 215.924 64.2232C216.73 64.9236 217.798 65.4314 219.094 65.7116C220.372 65.9918 222.368 66.1494 225.012 66.1494H233.278C235.957 66.1494 237.953 66.0093 239.231 65.7116C240.51 65.4139 241.56 64.9236 242.366 64.2232C243.241 63.4702 243.889 62.402 244.292 61.0887C244.695 59.7754 244.905 58.0243 244.905 55.9055V48.3408C244.905 46.2394 244.695 44.4884 244.292 43.175C243.889 41.8442 243.241 40.776 242.366 40.0231L242.383 40.0055ZM234.766 62.7523H223.524C221.948 62.7523 220.705 62.5947 219.864 62.297C219.024 61.9993 218.358 61.509 217.886 60.8261C217.535 60.3358 217.29 59.7404 217.15 59.0575C217.01 58.3745 216.94 57.2013 216.94 55.5903V48.4633C216.94 46.8523 217.01 45.6791 217.15 44.9962C217.29 44.3132 217.535 43.7179 217.886 43.2276C218.358 42.5446 219.024 42.0543 219.864 41.7566C220.722 41.459 221.948 41.3014 223.524 41.3014H234.766C236.342 41.3014 237.585 41.459 238.426 41.7566C239.266 42.0543 239.932 42.5446 240.405 43.2276C240.72 43.7004 240.965 44.2607 241.105 44.9086C241.245 45.5565 241.315 46.6072 241.315 48.0431V56.0106C241.315 57.4114 241.245 58.4621 241.105 59.1275C240.965 59.7754 240.737 60.3533 240.405 60.8261C239.932 61.509 239.266 61.9993 238.426 62.297C237.568 62.5947 236.342 62.7523 234.766 62.7523Z" fill="white"/>
<path d="M253.87 62.5777V38.4126H250.526V65.8347H273.185V62.5777H253.87Z" fill="white"/>
</g>
</g>
<defs>
<clipPath id="clip0_1515_3210">
<rect width="322" height="78.1895" fill="white" transform="translate(0 0.32666)"/>
</clipPath>
<clipPath id="clip1_1515_3210">
<rect width="238.884" height="56" fill="white" transform="translate(42 11.1897)"/>
</clipPath>
</defs>
</svg>
